<?xml version="1.0" encoding="UTF-8"?>
<!DOCTYPE svg PUBLIC "-//W3C//DTD SVG 1.1//EN" "http://www.w3.org/Graphics/SVG/1.1/DTD/svg11.dtd">
<!-- Creator: CorelDRAW SE (OEM-Version) -->
<svg xmlns="http://www.w3.org/2000/svg" xml:space="preserve" width="210mm" height="297mm" version="1.1" style="shape-rendering:geometricPrecision; text-rendering:geometricPrecision; image-rendering:optimizeQuality; fill-rule:evenodd; clip-rule:evenodd"
viewBox="0 0 21000 29700"
 xmlns:xlink="http://www.w3.org/1999/xlink">
 <defs>
  <style type="text/css">
   <![CDATA[
    .fil0 {fill:#25467D}
    .fil2 {fill:#3E73CF}
    .fil1 {fill:white}
    .fil3 {fill:#FEFEFE;fill-rule:nonzero}
   ]]>
  </style>
 </defs>
 <g id="Ebene_x0020_1">
  <metadata id="CorelCorpID_0Corel-Layer"/>
  <path class="fil0" d="M-0 14959.45l0 -7853.2c0,-1575 1181.25,-2756.25 2756.25,-2756.25l15618.75 0c1443.75,0 2625,1181.25 2625,2756.25l0 7853.2 -21000 0z"/>
  <g id="_116290960">
   <path class="fil1" d="M12517.54 13560.24l-438.74 -1389.33 -2851.78 0 -511.86 1389.33 -1608.69 0 2924.9 -7970.37 1243.09 0 2924.9 7970.37 -1681.82 0zm-1828.07 -5557.32l-1023.71 2851.78 1974.31 0 -950.6 -2851.78z"/>
  </g>
  <path class="fil2" d="M-0 14959.45l21000 0 0 7765.55c0,1443.75 -1181.25,2625 -2756.25,2625l-15487.5 0c-1575,0 -2756.25,-1181.25 -2756.25,-2756.25l0 -7634.3z"/>
  <path class="fil3" d="M6992.83 20370.87l1077.77 331.02c-165.51,606.89 -441.37,1057.24 -826.29,1352.35 -384.91,293.82 -872.48,441.37 -1463.97,441.37 -732.62,0 -1334.38,-250.2 -1806.54,-750.59 -470.88,-500.39 -706.97,-1184.26 -706.97,-2052.89 0,-917.39 237.37,-1630.77 710.82,-2138.86 473.45,-508.09 1097.01,-762.14 1869.41,-762.14 674.89,0 1222.76,200.16 1643.6,599.19 251.48,236.08 438.81,574.81 564.55,1017.47l-1100.87 261.74c-65.43,-284.84 -201.44,-510.66 -408.01,-676.17 -207.86,-165.52 -459.34,-247.63 -754.44,-247.63 -409.29,0 -741.61,146.27 -995.65,440.09 -255.33,292.53 -382.35,767.27 -382.35,1424.19 0,695.42 125.74,1191.96 375.93,1487.07 251.48,296.38 577.38,443.93 978.98,443.93 296.38,0 551.71,-93.66 764.7,-282.27 212.99,-188.61 366.95,-483.71 459.33,-887.87z"/>
  <path id="1" class="fil3" d="M13991.92 22403.23l-1202.23 0 -476.01 -1254.83 -2210.71 0 -458.06 1254.83 -1180.41 0 2140.14 -5512.02 1179.13 0 2208.15 5512.02zm-2040.07 -2186.33l-765.98 -2040.06 -744.18 2040.06 1510.16 0z"/>
  <polygon id="2" class="fil3" points="15254.44,22403.23 15254.44,17822.71 13622.39,17822.71 13622.39,16891.21 17995.06,16891.21 17995.06,17822.71 16370.7,17822.71 16370.7,22403.23 "/>
 </g>
</svg>
