<?xml version="1.0" encoding="UTF-8"?>
<!DOCTYPE svg PUBLIC "-//W3C//DTD SVG 1.1//EN" "http://www.w3.org/Graphics/SVG/1.1/DTD/svg11.dtd">
<!-- Creator: CorelDRAW SE (OEM-Version) -->
<svg xmlns="http://www.w3.org/2000/svg" xml:space="preserve" width="210mm" height="297mm" version="1.1" style="shape-rendering:geometricPrecision; text-rendering:geometricPrecision; image-rendering:optimizeQuality; fill-rule:evenodd; clip-rule:evenodd"
viewBox="0 0 21000 29700"
 xmlns:xlink="http://www.w3.org/1999/xlink">
 <defs>
  <style type="text/css">
   <![CDATA[
    .fil0 {fill:#25467D}
    .fil2 {fill:#25467D}
    .fil1 {fill:white}
   ]]>
  </style>
 </defs>
 <g id="Ebene_x0020_1">
  <metadata id="CorelCorpID_0Corel-Layer"/>
  <path class="fil0" d="M-0 14959.45l0 -7853.2c0,-1575 1181.25,-2756.25 2756.25,-2756.25l15618.75 0c1443.75,0 2625,1181.25 2625,2756.25l0 7853.2 -21000 0z"/>
  <g id="_121654640">
   <path class="fil1" d="M12517.54 13560.24l-438.74 -1389.33 -2851.78 0 -511.86 1389.33 -1608.69 0 2924.9 -7970.37 1243.09 0 2924.9 7970.37 -1681.82 0zm-1828.07 -5557.32l-1023.71 2851.78 1974.31 0 -950.6 -2851.78z"/>
  </g>
  <path class="fil2" d="M-0 14959.45l21000 0 0 7765.55c0,1443.75 -1181.25,2625 -2756.25,2625l-15487.5 0c-1575,0 -2756.25,-1181.25 -2756.25,-2756.25l0 -7634.3z"/>
 </g>
</svg>
