<?xml version="1.0" encoding="utf-8"?>
<!-- Generator: Adobe Illustrator 23.0.6, SVG Export Plug-In . SVG Version: 6.00 Build 0)  -->
<svg version="1.1" id="Ebene_1" xmlns="http://www.w3.org/2000/svg" xmlns:xlink="http://www.w3.org/1999/xlink" x="0px" y="0px"
     width="595.3px" height="841.9px" viewBox="0 0 595.3 841.9" style="enable-background:new 0 0 595.3 841.9;" xml:space="preserve"
    >
<style type="text/css">
    .st0{fill-rule:evenodd;clip-rule:evenodd;fill:#25467D;}
    .st1{fill-rule:evenodd;clip-rule:evenodd;fill:#FFFFFF;}
    .st2{fill-rule:evenodd;clip-rule:evenodd;fill:#CE4141;}
    .st3{fill:#FFFFFF;}
</style>
<g id="Ebene_x0020_1">
    <path class="st0" d="M0,424V201.4c0-44.6,33.5-78.1,78.1-78.1h442.7c40.9,0,74.4,33.5,74.4,78.1V424H0z"/>
    <g id="_116290960">
        <path class="st1" d="M354.8,384.4L342.4,345h-80.8L247,384.4h-45.6l82.9-225.9h35.2l82.9,225.9H354.8L354.8,384.4z M303,226.9
            l-29,80.8h56L303,226.9L303,226.9z"/>
    </g>
    <path class="st2" d="M0,424h595.3v220.1c0,40.9-33.5,74.4-78.1,74.4h-439C33.5,718.6,0,685.1,0,640.5V424z"/>
    <g>
        <path class="st3" d="M192.9,596.8c0,8.7-1.7,16.4-5.1,23c-3.4,6.7-8.1,12.3-14,16.9c-5.9,4.6-12.9,8.1-20.9,10.5
            c-8,2.4-16.7,3.6-26,3.6c-13.5,0-25.6-1.7-36.2-5.1c-10.6-3.4-20.2-9.5-28.9-18.4l22.5-22.5c5.7,5.7,12.2,9.6,19.5,11.8
            c7.3,2.2,15.2,3.3,23.5,3.3c10.3,0,18.2-1.9,23.5-5.6c5.3-3.8,8-9.2,8-16.4c0-6.5-1.8-11.5-5.5-15c-1.8-1.7-3.9-3-6.1-3.9
            c-2.3-0.9-5.5-1.7-9.6-2.4l-21.5-3c-15.2-2.2-26.7-7.1-34.5-14.8c-8.5-8.5-12.8-20.2-12.8-35c0-8,1.4-15.3,4.3-21.9
            c2.8-6.6,6.9-12.3,12.3-17c5.3-4.8,11.8-8.5,19.5-11.1c7.7-2.7,16.3-4,26-4c12.3,0,23.1,1.6,32.3,4.8c9.2,3.2,17.6,8.5,25.3,16
            l-22,21.8c-5.7-5.3-11.7-8.7-18.1-10.1c-6.4-1.4-12.6-2.1-18.4-2.1c-9.3,0-16.3,2.2-20.8,6.6c-4.5,4.4-6.8,9.7-6.8,15.9
            c0,2.3,0.4,4.6,1.3,6.8c0.8,2.2,2.2,4.2,4,6c1.8,1.7,4.1,3.1,6.9,4.4c2.8,1.3,6,2.1,9.6,2.6l21,3c8.2,1.2,14.9,2.9,20.3,5.1
            c5.3,2.3,9.9,5.1,13.8,8.6c4.8,4.5,8.3,9.9,10.5,16.3C191.8,581.6,192.9,588.8,192.9,596.8z"/>
        <path class="st3" d="M223.2,649.3V471.2h117.4v31H258V544h70.3v31H258v43.3h82.6v31H223.2z"/>
        <path class="st3" d="M498.7,649.3V545.5l-34,67.6h-23.5l-34.3-67.6v103.8h-34.8V471.2h34.3l46.5,96.3l46.3-96.3h34.3v178.2H498.7z
            "/>
    </g>
</g>
</svg>
